<svg xmlns="http://www.w3.org/2000/svg" viewBox="0 0 1138.29 253.85"><defs><style>.cls-1{fill:#cae5ce;}</style></defs><g id="Layer_2" data-name="Layer 2"><g id="Layer_1-2" data-name="Layer 1"><path class="cls-1" d="M418,216.69a4.7,4.7,0,0,1,.21-1.35,2,2,0,0,1,1.91-1.54,1.48,1.48,0,0,1,1.43,1.47c0,.57,0,.48-.39,1.48a6.27,6.27,0,0,0-.4,2.64c0,5-2.57,9.59-2.37,14.6.17,4.17,2.07,8.08,3.46,11.93a10.09,10.09,0,0,1,.57,4.52,2,2,0,0,1-.47,1.25,1.34,1.34,0,0,1-1.65,0,3.37,3.37,0,0,1-1-1.46c-1.45-3.37-1.8-10.66-2.5-9.44-.89,1.54-.57,6-1.2,9.24-.19,1-.54,2.1-1.49,2.34a1.79,1.79,0,0,1-1.95-1.26,4.79,4.79,0,0,1,0-2.52c.21-1.11.47-2.2.73-3.3l1.51-6.5c.2-.87.4-1.78.68-2.63a6.43,6.43,0,0,0,.11-1.86,7.15,7.15,0,0,0-.05-1.73,112.39,112.39,0,0,0-3.33-15.26,4,4,0,0,1-.24-2.12c.16-.68,1-.91,1.77-.61a2.5,2.5,0,0,1,.68.8,20,20,0,0,1,1.44,3.94c.25,1.2.32,1.58,1,6.08.16,1,.87,1,.93.29C417.81,222.43,417.94,219.17,418,216.69Z"/><path class="cls-1" d="M390.76,250.21a14.4,14.4,0,0,0-.43-2.25c-1.32-5-1.06-10.72-1.82-15.81-.28-2.43-.56-4.62-.84-7.05s-.26-4.74-.53-7.11a11.89,11.89,0,0,0-.69-3.3c-.44-1.11-1.86-1.95-2.85-1.28.2-.1.21-.15.22-.2a2.72,2.72,0,0,0-2,1.49,8.51,8.51,0,0,0-.63,2.71c-.87,6.77-.77,9.67-2.67,18.78-.45,2.15-.83,3.64-1.11,4.69-.36,1.32-.53,2.37-.81,3.67s-.95,2.83-1.27,4.29a4.14,4.14,0,0,0-.12,2.43,2.23,2.23,0,0,0,2.22,1.21,2.37,2.37,0,0,0,1.64-1.75,32.6,32.6,0,0,0,1-6.36,1.44,1.44,0,0,1,1.56-1.28c1.12.09,2,.2,2.94.26a1.55,1.55,0,0,1,1.44,1.52,20.24,20.24,0,0,0,.46,4.75c.26,1,0,2.35.87,2.93s2.91.43,3.3-.53A4.41,4.41,0,0,0,390.76,250.21Zm-5-8.78a14.67,14.67,0,0,1-2.53-.06,9.26,9.26,0,0,1-2.9-.68c.53-5.7,2.16-14.46,3.33-20.38a.33.33,0,0,1,.65,0C385.16,226.35,386.49,235.45,385.76,241.43Z"/><path class="cls-1" d="M348.54,249.38c2.28,1,7-1.48,6.81,2.33-1.77,2.74-5.8.86-8.74.95-.85.11-2,0-1.89-1,0-11,.13-21.65.13-32.66,0-1.27.24-3.92,1.31-4.89.49-.44,2-.57,2.13.32C349.19,220.52,347.41,245.57,348.54,249.38Z"/><path class="cls-1" d="M311.42,214.12a11.87,11.87,0,0,1,7,.8c.69.3,1.42.77,1.55,1.51a1.75,1.75,0,0,1-1.41,1.8,4.84,4.84,0,0,1-2.46-.27,3.65,3.65,0,0,0-2-.21c.22,3.74-.14,7.29-.08,11a9.64,9.64,0,0,1,2.68-.19,3.42,3.42,0,0,1,1.54.4,1.5,1.5,0,0,1,.77,1.33c-.07,1-1.25,1.41-2.22,1.48a7.68,7.68,0,0,1-2.7.08,18.23,18.23,0,0,1,0,3.22c0,4.89-.21,9.57-.25,14.45,1.42,0,2.89,0,4.3,0s1.84.17,2.12.92c.22.58-.23,1.29-.63,1.77s-1.37.43-2,.45c-1.94.06-3.83.43-5.71,0a3.17,3.17,0,0,1-1.34-1.08c-1-3.65-.37-8.21-.37-12q0-8.12,0-16.31c0-1.65,0-6.32.07-7.23a2.75,2.75,0,0,1,.33-1.23A1.57,1.57,0,0,1,311.42,214.12Z"/><path class="cls-1" d="M542,214.22a11.87,11.87,0,0,1,7,.8c.69.31,1.43.77,1.55,1.52a1.73,1.73,0,0,1-1.41,1.79,4.74,4.74,0,0,1-2.46-.27,3.65,3.65,0,0,0-2-.21c.22,3.74-.14,7.29-.08,11a9.64,9.64,0,0,1,2.68-.19,3.56,3.56,0,0,1,1.54.4,1.5,1.5,0,0,1,.77,1.33c-.07,1-1.25,1.41-2.22,1.48a7.68,7.68,0,0,1-2.7.08,18.34,18.34,0,0,1,0,3.23c0,4.88-.21,9.56-.25,14.44,1.42.05,2.89.05,4.3,0s1.84.17,2.12.92c.22.58-.23,1.3-.62,1.77s-1.38.43-2,.45c-1.94.06-3.83.43-5.71,0a3.23,3.23,0,0,1-1.34-1.08c-1-3.65-.37-8.21-.37-12q0-8.13,0-16.32c0-1.65,0-6.32.07-7.23a2.79,2.79,0,0,1,.33-1.23A1.61,1.61,0,0,1,542,214.22Z"/><path class="cls-1" d="M845.89,214.22a11.91,11.91,0,0,1,7,.8c.69.31,1.42.77,1.54,1.52a1.73,1.73,0,0,1-1.4,1.79,4.76,4.76,0,0,1-2.47-.27,3.62,3.62,0,0,0-1.95-.21c.22,3.74-.15,7.29-.09,11a9.67,9.67,0,0,1,2.68-.19,3.56,3.56,0,0,1,1.55.4,1.52,1.52,0,0,1,.77,1.33c-.08,1-1.25,1.41-2.22,1.48a7.74,7.74,0,0,1-2.71.08,18.34,18.34,0,0,1,0,3.23c0,4.88-.2,9.56-.24,14.44,1.42.05,2.88.05,4.3,0s1.83.17,2.11.92c.22.58-.23,1.3-.62,1.77s-1.37.43-2,.45c-1.93.06-3.82.43-5.71,0a3.2,3.2,0,0,1-1.33-1.08c-1-3.65-.37-8.21-.37-12V223.4c0-1.65,0-6.32.07-7.23a3.08,3.08,0,0,1,.33-1.23A1.65,1.65,0,0,1,845.89,214.22Z"/><path class="cls-1" d="M1044.68,214.55a11.8,11.8,0,0,1,7,.8c.69.3,1.42.77,1.55,1.51a1.73,1.73,0,0,1-1.41,1.79,4.64,4.64,0,0,1-2.46-.27,3.75,3.75,0,0,0-2-.2c.22,3.74-.14,7.29-.08,11A9.57,9.57,0,0,1,1050,229a3.31,3.31,0,0,1,1.55.4,1.5,1.5,0,0,1,.77,1.32c-.07,1-1.25,1.42-2.22,1.49a7.5,7.5,0,0,1-2.71.07,18.34,18.34,0,0,1,0,3.23c0,4.88-.21,9.56-.25,14.44,1.42.05,2.88.05,4.3,0s1.83.18,2.12.93c.21.58-.24,1.29-.63,1.77s-1.37.42-2,.45c-1.93.06-3.82.42-5.71,0a3.11,3.11,0,0,1-1.33-1.07c-1-3.65-.37-8.21-.37-12q0-8.11,0-16.31c0-1.65,0-6.33.07-7.24a3,3,0,0,1,.32-1.23A1.6,1.6,0,0,1,1044.68,214.55Z"/><path class="cls-1" d="M716.87,214.12a11.87,11.87,0,0,1,7,.8c.69.3,1.42.77,1.55,1.51a1.75,1.75,0,0,1-1.41,1.8,4.84,4.84,0,0,1-2.46-.27,3.65,3.65,0,0,0-2-.21c.22,3.74-.14,7.29-.08,11a9.64,9.64,0,0,1,2.68-.19,3.42,3.42,0,0,1,1.54.4,1.5,1.5,0,0,1,.77,1.33c-.07,1-1.25,1.41-2.22,1.48a7.68,7.68,0,0,1-2.7.08,19.24,19.24,0,0,1,0,3.22c0,4.89-.21,9.57-.25,14.45,1.42,0,2.89,0,4.3,0s1.84.17,2.12.92c.22.58-.23,1.29-.63,1.77s-1.37.43-2,.45c-1.93.06-3.82.43-5.7,0a3.17,3.17,0,0,1-1.34-1.08c-1-3.65-.37-8.21-.37-12q0-8.12,0-16.31c0-1.65,0-6.32.07-7.23a2.75,2.75,0,0,1,.33-1.23A1.57,1.57,0,0,1,716.87,214.12Z"/><path class="cls-1" d="M287.55,249.7c-1.49-7.32-5.13-14.63-5.79-21.84a.84.84,0,0,1,.17-.59,18.73,18.73,0,0,0,2.84-10c0-4.4-3.73-10.46-8.82-8.92a.91.91,0,0,0-.65.86c0,8.11,0,15.9-.09,23.89,0,4.4,0,10.21,0,17.75a1.61,1.61,0,0,0,1.43,1.57h.06a1.79,1.79,0,0,0,1.95-1.8c0-7.13-.25-15-.25-22.05,0,5.82,5.1,13.85,5.1,20.38C283.51,252.57,288.1,255.29,287.55,249.7Zm-8.4-25.49a2.14,2.14,0,0,1-.54.7.72.72,0,0,1-.58.11c.13-4.08.07-8.17-.16-12.24a1.2,1.2,0,0,1,.08-.66.53.53,0,0,1,.22-.18,1.41,1.41,0,0,1,1.8.62,5,5,0,0,1,.59,1.73A15.37,15.37,0,0,1,279.15,224.21Z"/><path class="cls-1" d="M518.14,250.06c-1.49-7.32-5.13-14.64-5.79-21.84a.84.84,0,0,1,.17-.59,18.83,18.83,0,0,0,2.84-10c0-4.39-3.73-10.46-8.82-8.91a.9.9,0,0,0-.65.86c0,8.11,0,15.9-.09,23.89,0,4.4,0,10.2,0,17.74a1.63,1.63,0,0,0,1.44,1.58h.06a1.8,1.8,0,0,0,1.95-1.8c0-7.13-.26-15-.26-22.05,0,5.82,5.11,13.85,5.11,20.38C514.09,252.93,518.69,255.65,518.14,250.06Zm-8.4-25.49a2,2,0,0,1-.54.69.68.68,0,0,1-.58.11c.13-4.08.07-8.17-.16-12.23a1.1,1.1,0,0,1,.08-.66.53.53,0,0,1,.22-.18,1.39,1.39,0,0,1,1.79.62,4.67,4.67,0,0,1,.6,1.73A15.37,15.37,0,0,1,509.74,224.57Z"/><path class="cls-1" d="M822.1,250.06c-1.49-7.32-5.13-14.64-5.78-21.84a.83.83,0,0,1,.16-.59,18.74,18.74,0,0,0,2.85-10c0-4.39-3.74-10.46-8.82-8.91a.91.91,0,0,0-.66.86c0,8.11,0,15.9-.09,23.89,0,4.4,0,10.2,0,17.74a1.62,1.62,0,0,0,1.44,1.58h.06a1.8,1.8,0,0,0,2-1.8c0-7.13-.26-15-.26-22.05,0,5.82,5.11,13.85,5.11,20.38C818.06,252.93,822.66,255.65,822.1,250.06Zm-8.4-25.49a2,2,0,0,1-.53.69.69.69,0,0,1-.58.11c.12-4.08.07-8.17-.17-12.23a1.19,1.19,0,0,1,.09-.66.48.48,0,0,1,.22-.18,1.39,1.39,0,0,1,1.79.62,4.86,4.86,0,0,1,.6,1.73A15.44,15.44,0,0,1,813.7,224.57Z"/><path class="cls-1" d="M690.9,250.18c-1.27-6.23-4.36-12.45-4.92-18.57a.69.69,0,0,1,.14-.5,16,16,0,0,0,2.42-8.55c0-3.73-3.18-8.89-7.5-7.58a.78.78,0,0,0-.56.73c0,6.9,0,13.52-.07,20.32,0,3.74,0,8.68,0,15.09a1.38,1.38,0,0,0,1.22,1.34h.05a1.53,1.53,0,0,0,1.66-1.53c0-6.07-.22-12.77-.22-18.76,0,5,4.35,11.78,4.35,17.34C687.46,252.62,691.37,254.93,690.9,250.18Zm-7.14-21.68a1.73,1.73,0,0,1-.46.59.59.59,0,0,1-.49.1c.11-3.47.06-6.95-.14-10.41a1,1,0,0,1,.07-.56.45.45,0,0,1,.19-.15,1.17,1.17,0,0,1,1.52.53,4,4,0,0,1,.51,1.47A13.08,13.08,0,0,1,683.76,228.5Z"/><path class="cls-1" d="M461.42,238.63a10.23,10.23,0,0,0,3.73-.49,5.88,5.88,0,0,0,3-2.23,8.8,8.8,0,0,0,1.15-3.92,10.51,10.51,0,0,0-.29-5,5.84,5.84,0,0,0-3.27-3.34,9.78,9.78,0,0,0-2.39-.56,4.21,4.21,0,0,0-.79-.06,5.47,5.47,0,0,0-2.67,1.24,7.25,7.25,0,0,0-.89.65,5.17,5.17,0,0,0-1,1.47,11.3,11.3,0,0,0-1.3,4.41,17.37,17.37,0,0,0,.18,3.14,4.19,4.19,0,0,0,.49,1.79,3.55,3.55,0,0,0,.69.76C459,237.41,460.08,238.59,461.42,238.63Z"/><path class="cls-1" d="M765.26,238.63a10.23,10.23,0,0,0,3.73-.49,5.92,5.92,0,0,0,3-2.23,9.07,9.07,0,0,0,1.15-3.92,10.77,10.77,0,0,0-.29-5,5.89,5.89,0,0,0-3.28-3.34,9.68,9.68,0,0,0-2.39-.56,4.1,4.1,0,0,0-.78-.06,5.54,5.54,0,0,0-2.68,1.24,8.11,8.11,0,0,0-.89.65,5.17,5.17,0,0,0-1,1.47,11.64,11.64,0,0,0-1.3,4.41,17.37,17.37,0,0,0,.19,3.14,4.06,4.06,0,0,0,.49,1.79,3.78,3.78,0,0,0,.68.76C762.85,237.41,763.91,238.59,765.26,238.63Z"/><path class="cls-1" d="M581.62,214.41c-1.81-2.54-5.7-1.38-7,1.14-3.4,6.95,1.25,14.41,4.59,20.53,1.95,4,1.84,15-4,13.57-1.46,0-2.34,1.11-1,2.42,9.68,4,11.38-12.83,7.24-18.28-2.74-5.84-8.79-14.11-1.06-17.47C581.34,216.29,582.22,215.22,581.62,214.41Z"/><path class="cls-1" d="M609,216.54c.6,11.05,1.2,22.11,1.41,33.18a3.44,3.44,0,0,0,.44,2,1.73,1.73,0,0,0,3-.4,4.17,4.17,0,0,0,.16-1.22c.23-3.14-1.43-24.28-1.77-33,.72.06.94-.17,1.66-.11a4.32,4.32,0,0,0,1.93-.12,1.3,1.3,0,0,0,.09-2.53,4.61,4.61,0,0,0-1.43-.24l-7.71-.41a4,4,0,0,0-1.65.15,1.32,1.32,0,0,0-.89,1.28c.09.76,1,1.1,1.73,1.24a19.82,19.82,0,0,0,3,.32C609,216.74,609,216.8,609,216.54Z"/><path class="cls-1" d="M1113.53,216.68c.59,11,1.19,22.11,1.41,33.18a3.46,3.46,0,0,0,.43,2,1.77,1.77,0,0,0,1.64.71,1.81,1.81,0,0,0,1.4-1.12,4.44,4.44,0,0,0,.16-1.22c.22-3.13-1.43-24.27-1.78-32.95.72.06.94-.17,1.66-.11a4.32,4.32,0,0,0,1.93-.12,1.3,1.3,0,0,0,.09-2.53,4.29,4.29,0,0,0-1.43-.24l-7.71-.41a3.82,3.82,0,0,0-1.65.15,1.32,1.32,0,0,0-.89,1.28c.1.75,1,1.1,1.73,1.24a19.82,19.82,0,0,0,3,.32C1113.51,216.88,1113.52,216.94,1113.53,216.68Z"/><path class="cls-1" d="M655.39,235.8a122,122,0,0,0-1.3-15c-.19-1.29-.26-3.3-1.09-4.47-1.49-2.09-5-3.35-8.47-3.25-3.12,0-3.86,2.4-4.68,4a11.26,11.26,0,0,0-.88,5,121.35,121.35,0,0,0,.72,19c.52,3.66.71,7.39,3.64,10.93a4.7,4.7,0,0,0,1.52,1.12,6,6,0,0,0,4.74-.07,8.4,8.4,0,0,0,3-2.74,23.77,23.77,0,0,0,2.65-8.9A39.05,39.05,0,0,0,655.39,235.8Zm-3.33,4.59a28,28,0,0,1-1.53,7.64,6.37,6.37,0,0,1-1.72,2.36,2.45,2.45,0,0,1-2.73.06,3.25,3.25,0,0,1-.88-1c-1.69-3-1.79-6.24-2.09-9.39a152.38,152.38,0,0,1-.41-16.28,13.64,13.64,0,0,1,.5-4.32c.47-1.38.9-3.43,2.69-3.43a5.19,5.19,0,0,1,4.88,2.78,13.38,13.38,0,0,1,.63,3.85c.41,4.22.71,8.63.75,12.87C652.17,237.19,652.19,238.77,652.06,240.39Z"/><path class="cls-1" d="M927.39,235.3a122.12,122.12,0,0,0-1.3-15c-.19-1.29-.26-3.3-1.09-4.47-1.49-2.09-5-3.35-8.47-3.25-3.12,0-3.86,2.4-4.68,4a11.26,11.26,0,0,0-.88,5,121.35,121.35,0,0,0,.72,19c.52,3.66.71,7.39,3.64,10.93a4.7,4.7,0,0,0,1.52,1.12,6,6,0,0,0,4.74-.07,8.4,8.4,0,0,0,3-2.74,23.77,23.77,0,0,0,2.65-8.9A39.05,39.05,0,0,0,927.39,235.3Zm-3.33,4.59a28,28,0,0,1-1.53,7.64,6.37,6.37,0,0,1-1.72,2.36,2.45,2.45,0,0,1-2.73.06,3.14,3.14,0,0,1-.88-1c-1.69-3-1.79-6.24-2.09-9.39a152.38,152.38,0,0,1-.41-16.28,13.64,13.64,0,0,1,.5-4.32c.47-1.38.9-3.43,2.69-3.43a5.19,5.19,0,0,1,4.88,2.78,13.38,13.38,0,0,1,.63,3.85c.41,4.22.71,8.63.75,12.87C924.17,236.69,924.19,238.27,924.06,239.89Z"/><path class="cls-1" d="M879.39,218.78A36.42,36.42,0,0,0,877.48,230l-.08,7.89c0,3.41,0,6.94,1.31,10.08s4.43,5.8,7.84,5.53a3.44,3.44,0,0,0,2.54-1.2,3.69,3.69,0,0,0,.75-1.83,1.71,1.71,0,0,0-1.61-1.57,14.8,14.8,0,0,0-1.49.28c-2.69.18-2.25.27-3.9-1.51s-1.39-7.29-1.39-9.71c0-3.39.08-4.43.08-8.34,0-1.68.41-5.53.41-5.53s.38-5.42,2.09-7.13c.79-.79,2-.48,3.54-.48a1.72,1.72,0,0,0,1.91-1.28,1.06,1.06,0,0,0-.69-1.46C886.91,213.22,881.33,212.92,879.39,218.78Z"/><path class="cls-1" d="M1078.52,219.1a36.72,36.72,0,0,0-1.9,11.24l-.08,7.88c0,3.42,0,6.95,1.31,10.09s4.43,5.8,7.84,5.53a3.45,3.45,0,0,0,2.54-1.21,3.65,3.65,0,0,0,.75-1.82,1.71,1.71,0,0,0-1.61-1.57,10.73,10.73,0,0,0-1.49.28c-2.69.17-2.25.26-3.9-1.52s-1.39-7.28-1.39-9.71c0-3.39.08-4.43.08-8.34,0-1.68.41-5.52.41-5.52s.38-5.43,2.09-7.13c.79-.79,2-.49,3.54-.49a1.72,1.72,0,0,0,1.91-1.27,1.08,1.08,0,0,0-.69-1.47C1086.05,213.54,1080.47,213.25,1078.52,219.1Z"/><path class="cls-1" d="M970,214.06a1.65,1.65,0,0,1,1.64,1,4.75,4.75,0,0,1,.33,2c0,5-.16,10-.36,15l-.25,6.42c-.08,2.09-.17,4.17-.38,6.25-.18,1.73-.47,3.46-.81,5.17-.3,1.53-.23,2.2-1.84,2.44a2,2,0,0,1-2.06-1.06,6.36,6.36,0,0,1-.6-1.68,31.9,31.9,0,0,0-.83-4c-1.37-4.47-2.5-9.2-4.15-13.57-.9-2.39-1.89-4.74-2.87-7.09-.68-1.62-1.45-3.39-2.13-5,0,10.24.51,19.64.51,30a4.85,4.85,0,0,1-.3,1.56,1.53,1.53,0,0,1-1.56.5,1.9,1.9,0,0,1-1.09-1,5.12,5.12,0,0,1-.38-1.94,239.07,239.07,0,0,1-.08-31.1,7.6,7.6,0,0,1,.44-2.5,2.63,2.63,0,0,1,1.82-1.63,1.28,1.28,0,0,1,1,.15,7.77,7.77,0,0,1,1.35,1.81c.88,2.47,1.31,2.41,2.25,5,.37,1.05,1,2.25,1.37,3.31s.85,3,1.17,4c.65,2,1.12,4.41,2,6.35,1.42,3.33,1.82,8.17,3.25,11.5.63,1.49.55-.17.55-.71,0-6.17.49-9.62.49-14.7s.14-9.05.14-13.74a5.43,5.43,0,0,1,.66-1.81A2,2,0,0,1,970,214.06Z"/><path class="cls-1" d="M1015.5,213.79a1.64,1.64,0,0,1,1.64,1,4.75,4.75,0,0,1,.33,2c0,5-.15,10-.35,15l-.26,6.42c-.08,2.09-.17,4.17-.38,6.25-.18,1.74-.47,3.46-.81,5.17-.3,1.53-.23,2.21-1.84,2.44a2,2,0,0,1-2.06-1.05,6.18,6.18,0,0,1-.59-1.69,31.77,31.77,0,0,0-.84-4c-1.37-4.48-2.5-9.2-4.15-13.58-.9-2.38-1.88-4.74-2.87-7.09-.67-1.62-1.45-3.39-2.13-5,0,10.24.51,19.64.51,30a4.85,4.85,0,0,1-.3,1.56,1.53,1.53,0,0,1-1.56.5,1.9,1.9,0,0,1-1.09-1,5.32,5.32,0,0,1-.38-1.94,238.92,238.92,0,0,1-.08-31.09,7.62,7.62,0,0,1,.44-2.51,2.63,2.63,0,0,1,1.82-1.63,1.33,1.33,0,0,1,1,.15,7.7,7.7,0,0,1,1.35,1.81c.89,2.47,1.31,2.41,2.25,5,.37,1,1,2.25,1.37,3.31s.85,3,1.17,4c.65,2,1.13,4.41,2,6.35,1.42,3.33,1.82,8.18,3.25,11.5.63,1.49.55-.17.55-.71,0-6.17.49-9.62.49-14.7s.14-9,.14-13.74a5.43,5.43,0,0,1,.66-1.81A2,2,0,0,1,1015.5,213.79Z"/><rect class="cls-1" y="46.97" width="29.25" height="11.75" rx="5.87"/><rect class="cls-1" x="51.75" y="46.97" width="29.25" height="11.75" rx="5.87"/><rect class="cls-1" x="26" y="21.22" width="29.25" height="11.75" rx="5.87" transform="translate(67.72 -13.53) rotate(90)"/><rect class="cls-1" x="26" y="72.97" width="29.25" height="11.75" rx="5.87" transform="translate(119.47 38.22) rotate(90)"/><circle class="cls-1" cx="40.63" cy="52.84" r="5.87"/><circle class="cls-1" cx="5.87" cy="110.84" r="5.87"/><circle class="cls-1" cx="52.37" cy="133.39" r="5.87"/><circle class="cls-1" cx="92.87" cy="93.47" r="5.87"/><circle class="cls-1" cx="92.87" cy="18.34" r="5.87"/><circle class="cls-1" cx="132.87" cy="122.4" r="5.87"/><circle class="cls-1" cx="167.62" cy="180.15" r="5.87"/><circle class="cls-1" cx="179.35" cy="99.34" r="5.87"/><circle class="cls-1" cx="17.6" cy="191.39" r="5.87"/><path class="cls-1" d="M126.46,158.69c-1.67-2.94-6.47-2-9.31-2.57-9-1.89-16.71-9.1-17.85-18.28-.89-3.87.23-9.23-5.22-10-3.91-.92-7.46,1-7.65,5.66-2.88,18.8-10.79,20.68-26.57,24.36-4.22,3-.9,10.86,2.7,10.47,3.82.31,8.48.31,12.14,2.81,9.93,6.31,10.22,12.71,12.55,22.76,2.44,5.36,9.62,4.16,11.19-1.15.73-2.2,1.12-6.63,1.69-8.36C106.44,161.65,132.58,175.35,126.46,158.69Zm-33.95,13c-2.55-2.78-6.38-7.08-9.37-9.25a32.29,32.29,0,0,0,9.34-9.53,40.84,40.84,0,0,0,9.5,9.64A43.39,43.39,0,0,0,92.51,171.72Z"/><path class="cls-1" d="M184.29,43.17c-1.66-2.93-6.46-2-9.31-2.57-9-1.88-16.71-9.09-17.84-18.27-.89-3.88.22-9.24-5.23-10-3.9-.93-7.45,1-7.65,5.65-2.87,18.8-10.78,20.68-26.56,24.37-4.22,2.95-.9,10.85,2.7,10.46,3.81.31,8.47.31,12.14,2.81,9.93,6.31,10.22,12.71,12.54,22.76,2.45,5.36,9.62,4.16,11.2-1.14C157,75,157.4,70.6,158,68.86,164.28,46.13,190.42,59.84,184.29,43.17Zm-33.94,13C147.8,53.43,144,49.12,141,47a32.45,32.45,0,0,0,9.34-9.54,40.65,40.65,0,0,0,9.5,9.64A43.39,43.39,0,0,0,150.35,56.2Z"/><path class="cls-1" d="M342.51,39.84c7.54-7.53-5.63-23.91-15.31-30.36-18.84-12.54-48.34-13.33-65,1.8-9.48,8.61-12.36,23.71-9.68,35.86,8.21,37.28,75.17,37.78,81.43,61.69,7.26,27.76-12.69,40.48-43.29,37.6-20.24-1.9-28.83-12.44-32.71-30.19-.35-1.63-12.28.72-11.36,4.89,8.58,39.35,43.52,42.28,74,36,26.94-5.56,37-48.34,16.12-66.14-20.4-17.41-49.9-19-68.18-37.27-8.32-8.32-2.52-29.79,3.42-33.89,14.39-9.95,45.44-10.44,55.77,12.6,2.52,5.63-14.46,9.28-20.06,17.4-1,1.48-.22,4.11,1.75,6.09,4.47,4.47,13.69,1.29,16.15-2.17C332.56,46.74,337.47,44.88,342.51,39.84Z"/><path class="cls-1" d="M374.55,194c-.06-54.83-.13-110.15-.2-165,19,.41,38.5,0,57.13,4,45,14.81,40.2,63.06-2.47,77.84-1.83-2.94-5-7-6.56-10.34,10.76-7.26,23.83-8.7,26.93-24,1.31-6.78,1.68-12.4-1.81-18.51-10.61-18.45-43.15-16-60.32-16,.24,51.26-.47,100.69-.21,151.92Z"/><path class="cls-1" d="M498.46,28.47c-4.1,0-8.4-.11-12.36-.11q0,64.57,0,128.61c4.3,0,7.88-.05,12.34-.05C498.45,114.25,498.6,70.88,498.46,28.47Z"/><path class="cls-1" d="M653.72,28.47c-4.1,0-8.39-.11-12.35-.11q0,64.57,0,128.61c4.29,0,7.88-.05,12.34-.05C653.72,114.25,653.87,70.88,653.72,28.47Z"/><path class="cls-1" d="M1138.22,29c-4.1,0-8.39-.11-12.35-.11q0,64.57,0,128.61c4.29,0,7.88-.05,12.34-.05C1138.22,114.75,1138.37,71.38,1138.22,29Z"/><path class="cls-1" d="M1043.22,28.47c-4.1,0-8.39-.11-12.35-.11q0,64.53,0,128.5c4.29,0,7.88-.05,12.34-.05C1043.22,114.17,1043.37,70.85,1043.22,28.47Z"/><path class="cls-1" d="M1107.23,156.8c0-4.1.06-8.39.06-12.36l-64.75,0c0,4.29,0,7.88,0,12.33C1064.05,156.79,1085.88,157,1107.23,156.8Z"/><path class="cls-1" d="M921.22,156.48l-.34-12c25.62.36,50.65.21,76.27-.24C982.46,103.6,970.56,70.5,957.09,33.2,941.79,74.62,927,115.4,912.28,157c-3.55.36-7.48-.06-11-.06-1.14,0-.93,0-2.49,0-.32,0,.76-2.52.86-2.81,4.25-11.88,8.25-21.7,12.5-33.58Q922.38,91.8,932.76,63.1c7.09-19.48,14-38.92,21.22-58.35,1.95,0,3.8,0,5.84,0,17.68,50.65,37,101.68,55.43,152.06-31.15,1.15-63.34.67-94.51-.27C920.74,156.68,920.74,156.78,921.22,156.48Z"/><path class="cls-1" d="M800.65,28.4c-4.25,0-7.17.13-11.28-.06,3.14,40.2-15.76,119.26,38,129.74,72.65,9.42,55.75-84.38,55.75-129.46-4.44,0-8.21-.17-12.17-.17C866,63.1,886.74,147,837.14,147,787.5,148.58,805.75,64.36,802,28.39A5.9,5.9,0,0,1,800.65,28.4Z"/><path class="cls-1" d="M773.27,28.59c0,4.36-.15,7.79-.15,12.48-14.6,0-30.33.08-44.32-.21,0,38.64,0,77.25,0,116.34-4.15,0-8.41.07-12.21.07,0-38.8,0-77.08,0-116-14.4,0-30.36-.2-44.43-.2V28.57S739.79,28.61,773.27,28.59Z"/><path class="cls-1" d="M545.93,39.76c8.18,0,21.05-.11,24.86.65,10.84,2.15,17.49,3.6,22.8,7.45,4.39,3.19,3.72,3.21,6.19,7.49,2,3.48.74,13.77-1.7,17.53A29.08,29.08,0,0,1,587,82.72l-10.56,5.56C587,111.1,597.14,133.16,607.75,156h14.06c-9.63-21.18-20-42.08-29.64-63.26,10-4.14,18.14-13.55,20.14-24.18a33.3,33.3,0,0,0-9.5-29.67,26.54,26.54,0,0,0-7.25-5,59.64,59.64,0,0,0-8.63-3.29c-15.21-4.25-31.14-4.12-46.95-3.18-2.8,0-4.77,0-6.5-.05,0,0-.09,0,0,0,0,13.11.29,23.39.29,36.93,0,4.91-.17,8.09-.17,14.92,0,14.19,0,28.1,0,42.3,0,5,0,8.84,0,14.24,0,7.06,0,13,0,20.33,4.1,0,8-.13,12.3-.13C545.9,116.68,545.93,78.07,545.93,39.76Z"/></g></g></svg>